<svg width="22" height="18" viewBox="0 0 22 18" fill="none" xmlns="http://www.w3.org/2000/svg">
<path id="Path 2" fill-rule="evenodd" clip-rule="evenodd" d="M7.30014 17.886C8.92729 17.9006 10.541 17.5924 12.0472 16.9794C13.5533 16.3665 14.9216 15.461 16.0721 14.3159C17.2227 13.1708 18.1324 11.8091 18.7482 10.3102C19.364 8.81137 19.6736 7.20542 19.6587 5.58618V5.0011C20.4811 4.37798 21.1966 3.62635 21.7774 2.77544C20.988 3.1169 20.1567 3.35306 19.3052 3.47779C20.1806 2.93071 20.8442 2.10495 21.1881 1.13485C20.3378 1.60605 19.4274 1.96066 18.4815 2.18904C18.0831 1.74286 17.5934 1.38667 17.0453 1.14438C16.4971 0.9021 15.9032 0.779333 15.3035 0.784326C14.1538 0.801666 13.0562 1.26386 12.2431 2.07292C11.4301 2.88199 10.9657 3.97432 10.9483 5.11838C10.9215 5.43545 10.9617 5.75457 11.0661 6.0553C9.33391 5.97211 7.63958 5.52145 6.09667 4.73352C4.55376 3.94558 3.19789 2.83858 2.11994 1.48668C1.73258 2.16498 1.52991 2.93218 1.53201 3.71235C1.54754 4.42037 1.72523 5.11551 2.05154 5.74486C2.37784 6.37421 2.84417 6.92116 3.41499 7.34405C2.70759 7.32982 2.01684 7.12784 1.41416 6.75897C1.41306 7.76224 1.76604 8.73402 2.4115 9.50471C3.05695 10.2754 3.95389 10.796 4.94575 10.9758C4.56244 11.0787 4.16475 11.1183 3.76855 11.093C3.48878 11.1117 3.20818 11.0718 2.94491 10.9758C3.23269 11.8438 3.78288 12.6023 4.52025 13.1473C5.25762 13.6924 6.14618 13.9976 7.06443 14.0211C5.51714 15.2237 3.61317 15.8827 1.64986 15.8949C1.29267 15.9139 0.934769 15.8743 0.590515 15.7776C2.53844 17.1852 4.89312 17.9252 7.30014 17.886Z" fill="#0E2368"/>
</svg>
